<?xml version="1.0" encoding="UTF-8"?>
<svg id="Layer_1" xmlns="http://www.w3.org/2000/svg" viewBox="0 0 40 40">
  <defs>
    <style>
      .cls-1 {
        fill: none;
        stroke: #000;
        stroke-miterlimit: 10;
      }
    </style>
  </defs>
  <rect class="cls-1" x="1.5" y="1.5" width="37" height="37" rx="5.02" ry="5.02"/>
  <g>
    <path d="M13.32,18.38c.86,1.76,6.82,7.72,8.51,8.51.33-.57.68-1.15,1-1.75.47-.9,1.23-1.19,2.17-.97,2.09.5,3.86,1.65,5.51,2.96.31.25.44.85.47,1.3.17,2.9-2.27,5.38-5.45,5.65-2.56.22-4.84-.61-6.97-1.87-4.61-2.73-8.26-6.43-10.84-11.13-1.27-2.31-2.03-4.77-1.34-7.45.71-2.77,2.85-4.5,5.38-4.43.73.02,1.34.2,1.72.91.79,1.45,1.72,2.83,2.37,4.34.7,1.63.32,2.35-1.21,3.2-.42.23-.83.47-1.3.74ZM24.49,32.99c.02-.07.04-.13.06-.2.17,0,.35,0,.52,0,2.47-.16,4.45-1.82,4.51-3.87.01-.4-.23-.97-.55-1.19-.95-.67-1.97-1.27-3.02-1.78-1.58-.76-1.66-.7-2.52.84-1,1.79-1.89,2.04-3.41.64-2.33-2.14-4.6-4.37-6.78-6.67-1.85-1.96-2.15-3.02.78-4.37.63-.29.84-.71.53-1.31-.73-1.4-1.47-2.79-2.28-4.15-.13-.22-.58-.34-.89-.34-1.45,0-2.47.75-3.18,1.96-1.33,2.26-.96,4.54.09,6.73,2.65,5.54,6.78,9.67,12.24,12.44,1.2.61,2.59.85,3.89,1.26Z"/>
    <path d="M20.56,5.91c7.2.02,13.32,6.17,13.33,13.38,0,.1.04.23-.01.31-.22.34-.46.66-.7.99-.24-.34-.7-.68-.7-1.03-.01-2.99-.96-5.63-2.89-7.89-2.47-2.88-5.63-4.36-9.45-4.36-.21,0-.46.07-.61-.03-.23-.15-.55-.43-.53-.62.03-.27.29-.62.54-.73.29-.13.68-.03,1.02-.03Z"/>
    <path d="M29.95,19.36c-.05.12-.14.61-.43.84-.47.39-.99-.08-1-.9-.07-3.48-1.76-5.95-4.83-7.44-.99-.48-2.17-.58-3.27-.78-.53-.1-1.24.06-1.19-.76.05-.77.74-.68,1.29-.67,5.1.11,9.29,4.29,9.44,9.7Z"/>
    <path d="M26.29,19.11c0,.14.05.31,0,.41-.2.3-.45.57-.68.85-.22-.25-.6-.48-.65-.76-.55-3.25-1.45-4.16-4.71-4.79-.27-.05-.46-.46-.69-.7.33-.22.65-.61.98-.62,3.06-.03,5.67,2.56,5.75,5.61Z"/>
  </g>
</svg>