<?xml version="1.0" encoding="UTF-8"?>
<svg id="Layer_1" xmlns="http://www.w3.org/2000/svg" viewBox="0 0 40 40">
  <defs>
    <style>
      .cls-1 {
        fill: none;
        stroke: #000;
        stroke-miterlimit: 10;
      }
    </style>
  </defs>
  <rect class="cls-1" x="1.5" y="1.5" width="37" height="37" rx="5.02" ry="5.02"/>
  <path d="M16.86,21.33h-4.44v-5.24h4.45c0-1.19-.07-2.31.02-3.41.09-1.18.16-2.4.55-3.5.85-2.39,2.75-3.59,5.21-3.79,1.62-.13,3.26-.03,4.95-.03v4.81c-.65,0-1.26-.01-1.87,0-.54.01-1.09.02-1.63.09-1.04.12-1.67.69-1.73,1.72-.07,1.33-.02,2.66-.02,4.07h5.15c-.23,1.78-.45,3.49-.68,5.25h-4.5v13.36h-5.44v-13.35ZM26.23,20.69c.17-1.32.34-2.59.52-3.98h-5.1c0-1.43-.02-2.74,0-4.06.05-2.16.95-3.05,3.11-3.1.71-.02,1.42,0,2.16,0v-3.54c-1.43,0-2.82-.11-4.19.02-2.85.27-4.55,1.87-5.07,4.69-.13.72-.13,1.48-.14,2.22-.02,1.23,0,2.47,0,3.79h-4.43v3.97h4.44v13.35h4.11v-13.35h4.59Z"/>
</svg>