<?xml version="1.0" encoding="UTF-8"?>
<svg id="Layer_1" xmlns="http://www.w3.org/2000/svg" viewBox="0 0 40 40">
  <defs>
    <style>
      .cls-1 {
        fill: none;
        stroke: #000;
        stroke-miterlimit: 10;
      }
    </style>
  </defs>
  <rect class="cls-1" x="1.5" y="1.5" width="37" height="37" rx="5.02" ry="5.02"/>
  <g>
    <path d="M19.98,32.98c-2.34,0-4.67.02-7.01,0-3.53-.03-5.94-2.45-5.95-5.95-.01-4.71-.02-9.42,0-14.12.01-3.43,2.47-5.86,5.92-5.87,4.71-.01,9.42-.01,14.12,0,3.4,0,5.87,2.4,5.89,5.79.04,4.78.04,9.56,0,14.34-.03,3.39-2.46,5.78-5.86,5.82-2.37.03-4.74,0-7.12,0ZM19.89,31.72s0,0,0,0c2.41,0,4.81.02,7.22,0,2.72-.03,4.6-1.92,4.61-4.63.02-4.71.02-9.41,0-14.12,0-2.79-1.88-4.68-4.66-4.69-4.71-.02-9.41-.02-14.12,0-2.78.01-4.65,1.9-4.66,4.69-.01,4.71-.01,9.41,0,14.12,0,2.72,1.88,4.6,4.61,4.63,2.34.03,4.67,0,7.01,0Z"/>
    <path d="M20.05,12.18c4.31.03,7.81,3.58,7.77,7.9-.04,4.31-3.61,7.79-7.93,7.74-4.26-.05-7.73-3.57-7.72-7.85.01-4.31,3.56-7.82,7.88-7.79ZM26.57,20.03c.02-3.59-2.93-6.57-6.51-6.6-3.64-.02-6.65,2.96-6.63,6.59.01,3.59,2.98,6.54,6.57,6.54,3.6,0,6.56-2.94,6.57-6.54Z"/>
    <path d="M28.11,12.94c-.3-.47-.79-.92-.86-1.42-.09-.72.45-1.16,1.2-1.13.75.02,1.26.5,1.1,1.21-.1.5-.61.91-.93,1.36-.17,0-.34-.01-.51-.02Z"/>
  </g>
</svg>