<?xml version="1.0" encoding="UTF-8"?>
<svg id="Layer_1" xmlns="http://www.w3.org/2000/svg" viewBox="0 0 40 40">
  <defs>
    <style>
      .cls-1 {
        fill: none;
        stroke: #000;
        stroke-miterlimit: 10;
      }
    </style>
  </defs>
  <rect class="cls-1" x="1.5" y="1.5" width="37" height="37" rx="5.02" ry="5.02"/>
  <g>
    <path d="M6.35,9.81c.03-.14.06-.27.1-.41.4-1.69,1.88-2.85,3.6-2.83,1.68.02,3.17,1.21,3.51,2.88.49,2.44-1.51,4.71-4.03,4.38-1.62-.21-2.85-1.43-3.13-3.05,0-.04-.03-.08-.05-.12,0-.28,0-.57,0-.85ZM12.71,10.21c0-1.51-1.22-2.75-2.69-2.73-1.55.02-2.75,1.2-2.76,2.72-.01,1.57,1.23,2.75,2.88,2.74,1.37,0,2.58-1.28,2.58-2.73Z"/>
    <path d="M21.77,16.3c.21-.2.37-.36.53-.5,1.18-1.01,2.55-1.47,4.09-1.49.99-.02,1.98,0,2.92.33,2.24.79,3.63,2.36,4.16,4.66.12.51.16,1.06.16,1.59.01,3.82,0,7.64,0,11.47,0,.68-.4,1.08-1.07,1.08-1.4,0-2.81,0-4.21,0-.7,0-1.08-.39-1.08-1.09,0-3.12,0-6.24,0-9.36,0-.29-.01-.59-.05-.88-.16-1.32-1.3-1.88-2.16-1.98-1.39-.16-2.58.77-2.79,2.16-.03.24-.05.48-.05.72,0,3.13,0,6.26,0,9.39,0,.7-.34,1.05-1.05,1.05-1.58,0-3.16,0-4.75,0-.7,0-1.03-.34-1.03-1.03,0-5.52,0-11.04,0-16.56,0-.73.35-1.08,1.07-1.08,1.4,0,2.79.02,4.19-.01.63-.02,1.18.46,1.11,1.1-.01.12,0,.24,0,.44ZM21.37,32.5v-.34c0-2.45,0-4.91,0-7.36,0-.77-.01-1.55.02-2.32.07-1.79,1.54-3.23,3.32-3.3,1.43-.05,2.82.8,3.24,2.06.17.52.23,1.1.24,1.65.03,3.08.03,6.17.05,9.25,0,.11,0,.23,0,.34h4.51c0-.11,0-.2,0-.29,0-3.77,0-7.54,0-11.31,0-.15,0-.3-.01-.45-.21-2.31-1.32-3.97-3.49-4.87-.89-.37-1.84-.37-2.78-.36-1.7.03-3.11.66-4.21,1.99-.39.47-.88.86-1.35,1.32v-2.84h-4.52v16.81h4.99Z"/>
    <path d="M13.17,24.1c0,2.6,0,5.21,0,7.81,0,.93-.57,1.51-1.51,1.51-1.12,0-2.24,0-3.36,0-.92,0-1.5-.58-1.5-1.5,0-5.22,0-10.45,0-15.67,0-.98.53-1.48,1.51-1.48,1.12,0,2.24,0,3.36,0,.92,0,1.5.58,1.5,1.5,0,2.61,0,5.22,0,7.84ZM12.26,24.13c0-2.59,0-5.19,0-7.78,0-.53-.15-.68-.69-.68-1.08,0-2.17,0-3.25,0-.48,0-.61.13-.61.62,0,5.2,0,10.39,0,15.59,0,.46.17.63.63.63,1.09,0,2.19,0,3.28,0,.5,0,.64-.15.64-.65,0-2.58,0-5.15,0-7.73Z"/>
  </g>
</svg>