<?xml version="1.0" encoding="UTF-8"?>
<svg id="Layer_1" xmlns="http://www.w3.org/2000/svg" viewBox="0 0 40 40">
  <defs>
    <style>
      .cls-1 {
        fill: none;
        stroke: #000;
        stroke-miterlimit: 10;
      }
    </style>
  </defs>
  <rect class="cls-1" x="1.5" y="1.5" width="37" height="37" rx="5.02" ry="5.02"/>
  <path d="M19.98,29.43c-3.6,0-7.19,0-10.79,0-2.01,0-2.68-.69-2.69-2.67,0-4.49,0-8.99,0-13.48,0-1.97.71-2.69,2.67-2.7,7.23,0,14.46,0,21.69,0,1.9,0,2.62.73,2.63,2.62,0,4.57,0,9.15,0,13.72,0,1.75-.73,2.5-2.5,2.51-3.67.02-7.35,0-11.02,0ZM8.37,11.78c3.4,3.15,6.54,6.07,9.7,8.97,1.46,1.34,2.38,1.33,3.86-.03,2.99-2.74,5.96-5.51,8.94-8.28.18-.16.31-.38.54-.67H8.37ZM8.34,28.27h23.32c-1.47-1.37-2.77-2.59-4.07-3.81-1.33-1.24-2.66-2.48-3.71-3.46-1.47.66-2.68,1.65-3.88,1.64-1.24-.02-2.47-1-3.87-1.64-2.39,2.24-5.01,4.68-7.79,7.27ZM7.59,27.51c2.8-2.61,5.4-5.04,8.06-7.52-2.68-2.5-5.29-4.92-8.06-7.5v15.03ZM24.35,20c2.69,2.51,5.29,4.93,8.03,7.48v-14.96c-2.74,2.56-5.33,4.97-8.03,7.48Z"/>
</svg>