<?xml version="1.0" encoding="UTF-8"?>
<svg id="Layer_1" xmlns="http://www.w3.org/2000/svg" viewBox="0 0 40 40">
  <defs>
    <style>
      .cls-1 {
        fill: none;
        stroke: #000;
        stroke-miterlimit: 10;
      }
    </style>
  </defs>
  <rect class="cls-1" x="1.5" y="1.5" width="37" height="37" rx="5.02" ry="5.02"/>
  <path d="M32.96,5.85c-1.51,1.76-3.03,3.52-4.54,5.28-1.86,2.16-3.73,4.33-5.59,6.49-.05.06-.11.13-.18.21,3.73,5.42,7.46,10.84,11.21,16.29-.1,0-.17.02-.24.02-2.59,0-5.18,0-7.78,0-.18,0-.28-.06-.38-.21-2.4-3.5-4.81-6.99-7.22-10.49-.06-.09-.13-.18-.2-.29-.71.82-1.39,1.61-2.08,2.41-2.41,2.8-4.82,5.6-7.24,8.39-.08.09-.24.17-.37.17-.72.02-1.44,0-2.23,0,3.63-4.21,7.22-8.38,10.82-12.55-.05-.08-.1-.16-.15-.23-3.48-5.06-6.96-10.12-10.45-15.18-.07-.1-.13-.22-.2-.33,2.75,0,5.5,0,8.25,0,.02.04.04.08.07.12,2.32,3.37,4.65,6.75,6.97,10.12.03.05.06.11.1.17,3.02-3.51,6-6.96,8.98-10.42.81,0,1.62,0,2.44,0ZM30.5,32.37c-.09-.13-.14-.21-.2-.3-1.49-2.13-2.99-4.27-4.48-6.4-4.13-5.9-8.26-11.79-12.39-17.69-.16-.22-.32-.3-.58-.3-1.02.02-2.05,0-3.07,0-.09,0-.17,0-.29.02.06.1.11.17.15.23,5.66,8.08,11.32,16.17,16.98,24.25.1.15.21.2.38.2,1.07,0,2.14,0,3.21,0,.08,0,.16,0,.29-.02Z"/>
</svg>