<?xml version="1.0" encoding="UTF-8"?>
<svg id="Layer_1" xmlns="http://www.w3.org/2000/svg" viewBox="0 0 40 40">
  <defs>
    <style>
      .cls-1 {
        fill: none;
        stroke: #000;
        stroke-miterlimit: 10;
      }
    </style>
  </defs>
  <rect class="cls-1" x="1.5" y="1.5" width="37" height="37" rx="5.02" ry="5.02"/>
  <g>
    <path d="M28.07,10.15H11.93c-2.94,0-5.33,2.4-5.33,5.35v9c0,2.95,2.39,5.35,5.33,5.35h16.15c2.94,0,5.33-2.4,5.33-5.35v-9c0-2.95-2.39-5.35-5.33-5.35ZM32.31,24.5c0,2.35-1.9,4.25-4.24,4.25H11.93c-2.34,0-4.24-1.91-4.24-4.25v-9c0-2.34,1.9-4.25,4.24-4.25h16.15c2.34,0,4.24,1.91,4.24,4.25v9Z"/>
    <path d="M24.85,19.8l-7.58-4.44c-.17-.1-.38-.1-.55,0-.17.1-.28.28-.28.47v8.88c0,.2.11.38.27.47.08.05.18.07.27.07s.19-.03.28-.07l7.58-4.44c.17-.1.27-.28.27-.47s-.1-.37-.27-.47ZM17.54,23.76v-6.97l5.95,3.49-5.95,3.48Z"/>
  </g>
</svg>