<?xml version="1.0" encoding="UTF-8"?>
<svg version="1.1" xmlns="http://www.w3.org/2000/svg" width="487" height="68">
<path d="M0 0 C1.18803223 -0.01583633 2.37606445 -0.03167267 3.60009766 -0.04798889 C4.87933105 -0.04302902 6.15856445 -0.03806915 7.4765625 -0.03295898 C8.79317871 -0.03915756 10.10979492 -0.04535614 11.46630859 -0.05174255 C14.2505036 -0.06214059 17.03418732 -0.0575943 19.81835938 -0.04296875 C23.38323636 -0.02577317 26.94650268 -0.04928505 30.51119995 -0.08445835 C33.91641611 -0.11171966 37.32124218 -0.10169731 40.7265625 -0.09545898 C42.0057959 -0.10871719 43.2850293 -0.1219754 44.60302734 -0.13563538 C45.79105957 -0.12310226 46.9790918 -0.11056915 48.203125 -0.09765625 C49.24807129 -0.09669449 50.29301758 -0.09573273 51.36962891 -0.09474182 C54.1015625 0.53344727 54.1015625 0.53344727 56.43786621 2.71534729 C58.30674131 5.88099531 58.60737699 7.60787036 58.61914062 11.25415039 C58.63174927 12.37881714 58.64435791 13.50348389 58.65734863 14.66223145 C58.64925171 15.86754517 58.64115479 17.07285889 58.6328125 18.31469727 C58.63855286 20.18405945 58.63855286 20.18405945 58.64440918 22.09118652 C58.64782459 25.39719674 58.63175746 28.70245184 58.609375 32.00836182 C58.60156894 34.03177884 58.60934771 36.05450199 58.62304688 38.07788086 C58.64775952 41.96964682 58.6447633 45.86038848 58.6328125 49.75219727 C58.64090942 50.95751099 58.64900635 52.16282471 58.65734863 53.40466309 C58.56379466 61.74949773 58.56379466 61.74949773 56.19335938 65.76977539 C52.9121169 68.53631317 51.0384947 68.66499969 46.81323242 68.69458008 C45.70835983 68.70418762 44.60348724 68.71379517 43.46513367 68.72369385 C41.66674797 68.73006866 41.66674797 68.73006866 39.83203125 68.73657227 C38.603741 68.74227234 37.37545074 68.74797241 36.10993958 68.75384521 C33.50648869 68.76330596 30.90302578 68.76983344 28.29956055 68.77368164 C24.31608102 68.78023521 20.33296814 68.81439396 16.34960938 68.84594727 C13.82291974 68.85247765 11.2962264 68.85772798 8.76953125 68.86157227 C6.98025459 68.88009247 6.98025459 68.88009247 5.15483093 68.89898682 C4.04050186 68.89598572 2.92617279 68.89298462 1.77807617 68.88989258 C0.3115284 68.89536102 0.3115284 68.89536102 -1.18464661 68.90093994 C-4.40194319 68.46526417 -6.28549603 67.43034687 -8.8984375 65.53344727 C-10.2153146 62.89969307 -10.04729379 60.90337886 -10.07543945 57.95385742 C-10.09469231 56.20161362 -10.09469231 56.20161362 -10.11433411 54.41397095 C-10.12172104 53.14628876 -10.12910797 51.87860657 -10.13671875 50.57250977 C-10.1447905 49.2752597 -10.15286224 47.97800964 -10.16117859 46.64144897 C-10.17620396 43.8925591 -10.18604307 41.14369507 -10.19360352 38.39477539 C-10.20467169 34.87499286 -10.23907651 31.3558419 -10.27877522 27.83628273 C-10.31121429 24.47755003 -10.3157176 21.11888706 -10.32421875 17.76000977 C-10.35048088 15.86455917 -10.35048088 15.86455917 -10.37727356 13.93081665 C-10.37434799 12.75634979 -10.37142242 11.58188293 -10.3684082 10.37182617 C-10.37427444 9.33861237 -10.38014069 8.30539856 -10.38618469 7.24087524 C-9.30330715 1.22994788 -5.62196906 0.03334929 0 0 Z M6.1015625 16.53344727 C6.1015625 28.08344727 6.1015625 39.63344727 6.1015625 51.53344727 C17.6515625 51.53344727 29.2015625 51.53344727 41.1015625 51.53344727 C41.1015625 39.98344727 41.1015625 28.43344727 41.1015625 16.53344727 C29.5515625 16.53344727 18.0015625 16.53344727 6.1015625 16.53344727 Z " fill="#FFFFFF" transform="translate(428.8984375,-0.533447265625)"/>
<path d="M0 0 C8.8275 -0.061875 17.655 -0.12375 26.75 -0.1875 C29.53276367 -0.21481201 32.31552734 -0.24212402 35.18261719 -0.27026367 C37.38736537 -0.2790252 39.5921184 -0.28666993 41.796875 -0.29296875 C42.94236816 -0.30831665 44.08786133 -0.32366455 45.26806641 -0.33947754 C46.36393066 -0.33984009 47.45979492 -0.34020264 48.58886719 -0.34057617 C50.01449982 -0.35056892 50.01449982 -0.35056892 51.46893311 -0.36076355 C54.48260276 0.06878739 55.82423793 0.89753734 58 3 C59.57423502 7.72270506 59.30843289 12.49035309 59.375 17.4375 C59.43107422 19.01241211 59.43107422 19.01241211 59.48828125 20.61914062 C59.57728318 28.37714184 59.57728318 28.37714184 56.4765625 31.72265625 C55.65929688 32.14417969 54.84203125 32.56570312 54 33 C54.81202881 33.37527832 55.62405762 33.75055664 56.46069336 34.13720703 C59 36 59 36 59.63110352 38.64794922 C59.63001587 40.21053467 59.63001587 40.21053467 59.62890625 41.8046875 C59.63083984 42.94550781 59.63277344 44.08632813 59.63476562 45.26171875 C59.61091797 46.45410156 59.58707031 47.64648438 59.5625 48.875 C59.57345703 50.05964844 59.58441406 51.24429688 59.59570312 52.46484375 C59.51266572 62.28540053 59.51266572 62.28540053 55 67 C52.47255912 68.26372044 50.73619692 68.12022795 47.90771484 68.11352539 C46.83191162 68.11340454 45.7561084 68.11328369 44.64770508 68.11315918 C43.51357178 68.10804321 42.37943848 68.10292725 41.2109375 68.09765625 C40.17106689 68.09664917 39.13119629 68.09564209 38.05981445 68.09460449 C34.16486513 68.08936135 30.26993149 68.07540015 26.375 68.0625 C17.67125 68.041875 8.9675 68.02125 0 68 C0 45.56 0 23.12 0 0 Z M16 16 C16 23.26 16 30.52 16 38 C20.35486586 35.72268483 24.69375191 33.4381601 29.00683594 31.0859375 C30.81500963 30.10078848 32.62980363 29.12781484 34.4453125 28.15625 C35.43273437 27.5890625 36.42015625 27.021875 37.4375 26.4375 C38.32308594 25.94121094 39.20867188 25.44492187 40.12109375 24.93359375 C42.81304086 22.61264841 42.81304086 22.61264841 42 16 C33.42 16 24.84 16 16 16 Z M16 39 C16 42.96 16 46.92 16 51 C24.58 51 33.16 51 42 51 C42 47.04 42 43.08 42 39 C33.42 39 24.84 39 16 39 Z " fill="#FFFFFF" transform="translate(0,0)"/>
<path d="M0 0 C1.65125885 0.00045319 1.65125885 0.00045319 3.33587646 0.00091553 C4.51828918 0.02156067 5.7007019 0.04220581 6.91894531 0.06347656 C8.13406799 0.06913635 9.34919067 0.07479614 10.60113525 0.08062744 C14.48351374 0.10302422 18.36497059 0.15322969 22.24707031 0.20410156 C24.87856741 0.22416216 27.51007896 0.24241369 30.14160156 0.25878906 C36.59377978 0.30290031 43.04526877 0.37195326 49.49707031 0.45410156 C49.49707031 5.73410156 49.49707031 11.01410156 49.49707031 16.45410156 C35.30707031 16.45410156 21.11707031 16.45410156 6.49707031 16.45410156 C6.49707031 24.37410156 6.49707031 32.29410156 6.49707031 40.45410156 C8.16769531 39.09285156 9.83832031 37.73160156 11.55957031 36.32910156 C13.01352023 35.14440163 14.46805974 33.96031308 15.93481445 32.79150391 C17.54553184 31.46419581 17.54553184 31.46419581 19.01049805 29.82373047 C22.57407432 26.1732377 25.07180599 25.05614038 30.21191406 24.86816406 C32.28694782 24.90768851 34.36158851 24.97873373 36.43457031 25.07910156 C37.49998047 25.10617188 38.56539063 25.13324219 39.66308594 25.16113281 C42.27529411 25.23141644 44.88645203 25.33902125 47.49707031 25.45410156 C47.49707031 29.74410156 47.49707031 34.03410156 47.49707031 38.45410156 C45.87865234 38.51017578 45.87865234 38.51017578 44.22753906 38.56738281 C34.92264759 38.95412588 25.87255993 39.84617292 16.69311523 41.43774414 C13.21811936 42.03965045 10.03686925 42.45410156 6.49707031 42.45410156 C6.49707031 45.42410156 6.49707031 48.39410156 6.49707031 51.45410156 C20.68707031 51.45410156 34.87707031 51.45410156 49.49707031 51.45410156 C49.49707031 57.06410156 49.49707031 62.67410156 49.49707031 68.45410156 C42.04063086 68.52827417 34.58440632 68.5827152 27.12768555 68.61889648 C24.59118916 68.6339802 22.05471883 68.65444987 19.51831055 68.68041992 C15.87184209 68.71682037 12.22571859 68.73383239 8.57910156 68.74707031 C6.87884575 68.7702961 6.87884575 68.7702961 5.14424133 68.79399109 C4.08351913 68.79421768 3.02279694 68.79444427 1.92993164 68.79467773 C0.53427727 68.80467049 0.53427727 68.80467049 -0.88957214 68.81486511 C-4.04961698 68.37863357 -5.93041917 67.31000395 -8.50292969 65.45410156 C-9.81980679 62.82034737 -9.65178598 60.82403316 -9.67993164 57.87451172 C-9.69918449 56.12226791 -9.69918449 56.12226791 -9.71882629 54.33462524 C-9.72621323 53.06694305 -9.73360016 51.79926086 -9.74121094 50.49316406 C-9.74928268 49.195914 -9.75735443 47.89866394 -9.76567078 46.56210327 C-9.78069615 43.8132134 -9.79053526 41.06434937 -9.7980957 38.31542969 C-9.80916388 34.79564715 -9.8435687 31.2764962 -9.8832674 27.75693703 C-9.91570647 24.39820432 -9.92020979 21.03954136 -9.92871094 17.68066406 C-9.95497307 15.78521347 -9.95497307 15.78521347 -9.98176575 13.85147095 C-9.97884018 12.67700409 -9.97591461 11.50253723 -9.97290039 10.29248047 C-9.97876663 9.25926666 -9.98463287 8.22605286 -9.99067688 7.16152954 C-8.9477695 1.37247191 -5.4807692 -0.05028229 0 0 Z " fill="#FFFFFF" transform="translate(289.5029296875,-0.4541015625)"/>
<path d="M0 0 C13.48875 -0.1546875 13.48875 -0.1546875 27.25 -0.3125 C31.50245605 -0.38078003 31.50245605 -0.38078003 35.84082031 -0.45043945 C38.08657649 -0.46504176 40.33234588 -0.47778303 42.578125 -0.48828125 C43.74520996 -0.51386108 44.91229492 -0.53944092 46.11474609 -0.5657959 C54.28384358 -0.57021832 54.28384358 -0.57021832 57.73876953 2.18066406 C59.93566237 7.09156582 59.6565161 11.75834023 59.625 17.0625 C59.65722656 18.15111328 59.68945312 19.23972656 59.72265625 20.36132812 C59.73221985 28.13175205 59.73221985 28.13175205 57.62011719 30.63623047 C55.9609375 31.74609375 55.9609375 31.74609375 53 33 C54.98 33.99 56.96 34.98 59 36 C59 46.56 59 57.12 59 68 C53.39 68 47.78 68 42 68 C42 59.42 42 50.84 42 42 C33.75 42 25.5 42 17 42 C17 50.58 17 59.16 17 68 C11.39 68 5.78 68 0 68 C0 45.56 0 23.12 0 0 Z M17 16 C17 23.92 17 31.84 17 40 C20.64778981 38.54088408 23.37468637 37.27356126 26.609375 35.21484375 C27.44597656 34.68439453 28.28257812 34.15394531 29.14453125 33.60742188 C30.43423828 32.78081055 30.43423828 32.78081055 31.75 31.9375 C32.62527344 31.38255859 33.50054687 30.82761719 34.40234375 30.25585938 C38.40409023 27.89185392 38.40409023 27.89185392 42 25 C42 22.03 42 19.06 42 16 C33.75 16 25.5 16 17 16 Z " fill="#FFFFFF" transform="translate(349,0)"/>
<path d="M0 0 C1.00784546 -0.01583633 2.01569092 -0.03167267 3.05407715 -0.04798889 C4.13644653 -0.04302902 5.21881592 -0.03806915 6.33398438 -0.03295898 C8.00926208 -0.04225685 8.00926208 -0.04225685 9.71838379 -0.05174255 C12.07868579 -0.05884358 14.43903785 -0.05566187 16.79931641 -0.04296875 C20.41467223 -0.02910283 24.02744094 -0.06317362 27.64257812 -0.10131836 C29.93554751 -0.10226952 32.22852014 -0.10041088 34.52148438 -0.09545898 C35.60385376 -0.10871719 36.68622314 -0.1219754 37.8013916 -0.13563538 C39.31315979 -0.11683571 39.31315979 -0.11683571 40.85546875 -0.09765625 C41.74053101 -0.09669449 42.62559326 -0.09573273 43.53747559 -0.09474182 C47.0585672 0.83064389 48.08420209 2.45528289 49.92773438 5.53344727 C50.40875244 8.52644348 50.40875244 8.52644348 50.38183594 11.88427734 C50.38153381 13.14520706 50.38123169 14.40613678 50.38092041 15.70527649 C50.36049703 17.07118367 50.3396331 18.43708432 50.31835938 19.80297852 C50.31089322 21.2082997 50.30520206 22.61363133 50.3012085 24.01896667 C50.28598124 27.70666563 50.24672583 31.39372818 50.20239258 35.08117676 C50.16137627 38.84838249 50.143184 42.61569168 50.12304688 46.38305664 C50.08022742 53.76684305 50.00990288 61.14997469 49.92773438 68.53344727 C44.31773438 68.53344727 38.70773438 68.53344727 32.92773438 68.53344727 C32.92773438 60.61344727 32.92773438 52.69344727 32.92773438 44.53344727 C24.34773438 44.53344727 15.76773438 44.53344727 6.92773438 44.53344727 C6.92773438 52.45344727 6.92773438 60.37344727 6.92773438 68.53344727 C1.64773437 68.53344727 -3.63226563 68.53344727 -9.07226562 68.53344727 C-9.16265493 60.2579587 -9.23603159 51.98285424 -9.27951431 43.70700455 C-9.30038446 39.86413475 -9.32869069 36.02162034 -9.37402344 32.17895508 C-9.41750308 28.47013611 -9.44140704 24.76165885 -9.4517746 21.05260468 C-9.4591623 19.63798391 -9.47358906 18.22338174 -9.49518585 16.80890656 C-9.52424178 14.82697304 -9.52589971 12.84469527 -9.52636719 10.86254883 C-9.53969086 9.17044281 -9.53969086 9.17044281 -9.55328369 7.44415283 C-9.07226562 4.53344727 -9.07226562 4.53344727 -7.36090088 2.17121887 C-4.65893563 0.23766395 -3.29530695 0.02307885 0 0 Z M6.92773438 16.53344727 C6.92773438 25.44344727 6.92773438 34.35344727 6.92773438 43.53344727 C12.41295866 40.6675269 12.41295866 40.6675269 17.85742188 37.73266602 C20.3421733 36.37463897 22.82137807 35.10081024 25.37304688 33.86547852 C28.79960114 32.18156383 28.79960114 32.18156383 32.92773438 28.53344727 C32.92773438 24.57344727 32.92773438 20.61344727 32.92773438 16.53344727 C24.34773438 16.53344727 15.76773438 16.53344727 6.92773438 16.53344727 Z " fill="#FFFFFF" transform="translate(79.072265625,-0.533447265625)"/>
<path d="M0 0 C22.44 0 44.88 0 68 0 C68 5.28 68 10.56 68 16 C59.42 16 50.84 16 42 16 C42 33.16 42 50.32 42 68 C36.39 68 30.78 68 25 68 C25 50.84 25 33.68 25 16 C16.75 16 8.5 16 0 16 C0 10.72 0 5.44 0 0 Z " fill="#FFFFFF" transform="translate(205,0)"/>
<path d="M0 0 C22.44 0 44.88 0 68 0 C68 5.28 68 10.56 68 16 C59.42 16 50.84 16 42 16 C42 33.16 42 50.32 42 68 C36.39 68 30.78 68 25 68 C25 50.84 25 33.68 25 16 C16.75 16 8.5 16 0 16 C0 10.72 0 5.44 0 0 Z " fill="#FFFFFF" transform="translate(135,0)"/>
</svg>
